<svg width="692" height="692" viewBox="0 0 692 692" fill="none" xmlns="http://www.w3.org/2000/svg">
<g filter="url(#filter0_f_14273_1888)">
<ellipse cx="345.855" cy="345.556" rx="129.299" ry="129" fill="#8243EA" fill-opacity="0.4"/>
</g>
<g opacity="0.2" clip-path="url(#clip0_14273_1888)">
<mask id="mask0_14273_1888" style="mask-type:alpha" maskUnits="userSpaceOnUse" x="61" y="266" width="606" height="606">
<rect width="604.681" height="604.681" transform="translate(61.7721 266.556)" fill="url(#paint0_radial_14273_1888)"/>
</mask>
<g mask="url(#mask0_14273_1888)">
<g clip-path="url(#clip1_14273_1888)">
<g clip-path="url(#clip2_14273_1888)">
<line x1="239.412" y1="266.556" x2="239.412" y2="434.527" stroke="#545357" stroke-width="0.419918"/>
<line x1="273.005" y1="266.556" x2="273.005" y2="434.527" stroke="#545357" stroke-width="0.419918"/>
<line x1="306.599" y1="266.556" x2="306.599" y2="434.527" stroke="#545357" stroke-width="0.419918"/>
<line x1="340.192" y1="266.556" x2="340.192" y2="434.527" stroke="#545357" stroke-width="0.419918"/>
<line x1="373.786" y1="266.556" x2="373.786" y2="434.527" stroke="#545357" stroke-width="0.419918"/>
<line x1="407.379" y1="266.556" x2="407.379" y2="434.527" stroke="#545357" stroke-width="0.419918"/>
<line x1="440.972" y1="266.556" x2="440.972" y2="434.527" stroke="#545357" stroke-width="0.419918"/>
<line x1="474.566" y1="266.556" x2="474.566" y2="434.527" stroke="#545357" stroke-width="0.419918"/>
<line x1="508.159" y1="266.556" x2="508.159" y2="434.527" stroke="#545357" stroke-width="0.419918"/>
</g>
<g clip-path="url(#clip3_14273_1888)">
<line x1="205.609" y1="299.94" x2="520.636" y2="299.94" stroke="#545357" stroke-width="0.419918"/>
<line x1="205.609" y1="333.533" x2="520.636" y2="333.533" stroke="#545357" stroke-width="0.419918"/>
<line x1="205.609" y1="367.127" x2="520.636" y2="367.127" stroke="#545357" stroke-width="0.419918"/>
<line x1="205.609" y1="400.72" x2="520.636" y2="400.72" stroke="#545357" stroke-width="0.419918"/>
<circle opacity="0.4" cx="462.378" cy="365.823" r="1.62412" transform="rotate(180 462.378 365.823)" fill="#545357"/>
</g>
</g>
</g>
</g>
<circle opacity="0.4" cx="212.524" cy="326.75" r="1.08278" transform="rotate(180 212.524 326.75)" fill="#545357"/>
<circle opacity="0.4" cx="336.149" cy="342.577" r="1.08278" transform="rotate(180 336.149 342.577)" fill="#545357"/>
<circle opacity="0.4" cx="400.947" cy="288.827" r="1.08278" transform="rotate(180 400.947 288.827)" fill="#545357"/>
<circle opacity="0.4" cx="385.419" cy="257.472" r="1.08278" transform="rotate(180 385.419 257.472)" fill="#545357"/>
<circle opacity="0.4" cx="311.609" cy="251.639" r="1.08278" transform="rotate(180 311.609 251.639)" fill="#545357"/>
<circle opacity="0.4" cx="489.419" cy="313.472" r="1.08278" transform="rotate(180 489.419 313.472)" fill="#545357"/>
<circle opacity="0.4" cx="497.419" cy="385.472" r="1.08278" transform="rotate(180 497.419 385.472)" fill="#545357"/>
<circle opacity="0.4" cx="408.609" cy="442.639" r="1.08278" transform="rotate(180 408.609 442.639)" fill="#545357"/>
<circle opacity="0.4" cx="409.308" cy="346.16" r="1.08278" transform="rotate(180 409.308 346.16)" fill="#545357"/>
<circle opacity="0.4" cx="258.614" cy="386.57" r="1.08278" transform="rotate(180 258.614 386.57)" fill="#545357"/>
<g clip-path="url(#clip4_14273_1888)">
<path d="M315.824 326.147C313.714 311.2 302.42 306.32 305.529 296.733C311.179 279.308 353.771 279.203 360.72 279.165C383.276 279.098 419.864 278.994 434.863 304.902C441.774 316.841 431.682 323.934 436.099 354.336C438.719 372.381 442.491 374.561 440.631 382.524C435.007 406.562 393.798 415.915 387.891 417.258C343.911 427.238 288.319 413.324 284.1 390.701C280.341 370.464 320.009 355.784 315.824 326.147Z" fill="#632ABB" fill-opacity="0.5"/>
<path d="M295.644 371.493C293.197 366.212 280.729 339.271 292.348 322.879C299.099 313.363 307.58 316.347 324.064 305.722C346.506 291.255 343.379 277.596 359.505 269.365C380.955 258.401 416.949 267.076 427.467 286.522C437.635 305.324 416.78 320.879 426.623 348.62C434.045 369.493 449.542 371.075 449.28 384.571C448.896 404.034 416.219 423.594 386.672 426.242C346.421 429.854 309.892 402.26 295.644 371.493Z" fill="#632ABB" fill-opacity="0.6"/>
<path d="M446.333 353.281C446.923 349.672 444.453 346.272 440.814 345.686C437.175 345.1 433.747 347.551 433.156 351.16C432.565 354.769 435.036 358.169 438.675 358.755C442.314 359.341 445.742 356.89 446.333 353.281Z" fill="#DC49A6"/>
<path d="M305.203 289.433C305.67 287.471 304.445 285.506 302.468 285.043C300.49 284.58 298.508 285.795 298.042 287.756C297.575 289.718 298.8 291.683 300.777 292.146C302.755 292.609 304.736 291.394 305.203 289.433Z" fill="#DC49A6"/>
<path d="M296.777 310.379C300.463 310.379 303.452 307.415 303.452 303.759C303.452 300.103 300.463 297.139 296.777 297.139C293.091 297.139 290.102 300.103 290.102 303.759C290.102 307.415 293.091 310.379 296.777 310.379Z" fill="#DC49A6"/>
<path d="M300.852 293.774C302.884 293.774 304.531 292.141 304.531 290.125C304.531 288.11 302.884 286.476 300.852 286.476C298.82 286.476 297.173 288.11 297.173 290.125C297.173 292.141 298.82 293.774 300.852 293.774Z" fill="#DC49A6"/>
<path d="M302.394 400.439C304.426 400.439 306.074 398.806 306.074 396.79C306.074 394.775 304.426 393.141 302.394 393.141C300.363 393.141 298.715 394.775 298.715 396.79C298.715 398.806 300.363 400.439 302.394 400.439Z" fill="#DC49A6"/>
<path d="M449.24 337.855C449.707 335.894 448.482 333.928 446.505 333.465C444.527 333.002 442.546 334.217 442.079 336.179C441.612 338.14 442.837 340.106 444.815 340.568C446.792 341.031 448.774 339.817 449.24 337.855Z" fill="#DC49A6"/>
<path d="M298.259 376.649L299.647 375.272C299.791 375.121 299.87 374.92 299.867 374.712C299.864 374.504 299.779 374.306 299.631 374.159C299.482 374.012 299.282 373.928 299.073 373.925C298.863 373.922 298.66 374 298.508 374.142L297.12 375.519L295.732 374.142C295.581 373.992 295.376 373.907 295.162 373.907C294.947 373.907 294.742 373.991 294.59 374.14C294.439 374.29 294.353 374.494 294.353 374.706C294.353 374.918 294.437 375.122 294.588 375.272L295.976 376.649L294.593 378.026C294.517 378.1 294.458 378.188 294.417 378.285C294.376 378.382 294.355 378.486 294.355 378.591C294.355 378.696 294.376 378.8 294.417 378.897C294.458 378.994 294.517 379.082 294.593 379.156C294.744 379.306 294.949 379.39 295.162 379.39C295.376 379.39 295.581 379.306 295.732 379.156L297.12 377.783L298.504 379.156C298.579 379.231 298.668 379.29 298.767 379.33C298.865 379.37 298.971 379.391 299.078 379.39C299.183 379.391 299.288 379.371 299.386 379.33C299.484 379.29 299.573 379.231 299.647 379.156C299.722 379.082 299.782 378.994 299.823 378.897C299.864 378.8 299.885 378.696 299.885 378.591C299.885 378.486 299.864 378.382 299.823 378.285C299.782 378.188 299.722 378.1 299.647 378.026L298.259 376.649Z" fill="#8746EB"/>
<path d="M441.593 368.305L442.981 366.928C443.132 366.777 443.216 366.574 443.216 366.361C443.216 366.149 443.13 365.946 442.979 365.796C442.827 365.646 442.621 365.562 442.407 365.563C442.193 365.563 441.988 365.648 441.837 365.798L440.449 367.175L439.061 365.798C438.909 365.655 438.706 365.577 438.496 365.58C438.287 365.583 438.086 365.667 437.938 365.814C437.79 365.961 437.705 366.16 437.702 366.368C437.699 366.576 437.778 366.777 437.922 366.928L439.31 368.305L437.922 369.681C437.847 369.755 437.787 369.843 437.746 369.94C437.705 370.037 437.684 370.141 437.684 370.246C437.684 370.351 437.705 370.455 437.746 370.552C437.787 370.649 437.847 370.737 437.922 370.811C437.996 370.886 438.085 370.946 438.183 370.986C438.28 371.026 438.386 371.047 438.491 371.046C438.598 371.046 438.704 371.026 438.802 370.985C438.9 370.945 438.99 370.886 439.065 370.811L440.449 369.439L441.837 370.811C441.988 370.961 442.193 371.045 442.407 371.045C442.62 371.045 442.825 370.961 442.976 370.811C443.052 370.737 443.111 370.649 443.152 370.552C443.193 370.455 443.214 370.351 443.214 370.246C443.214 370.141 443.193 370.037 443.152 369.94C443.111 369.843 443.052 369.755 442.976 369.681L441.593 368.305Z" fill="#8746EB"/>
<path d="M412.075 269.507L413.531 268.201C413.673 268.055 413.753 267.86 413.756 267.657C413.759 267.454 413.684 267.257 413.547 267.106C413.409 266.956 413.219 266.862 413.015 266.845C412.811 266.828 412.608 266.888 412.447 267.013L410.991 268.323L409.675 266.879C409.604 266.801 409.518 266.737 409.422 266.692C409.327 266.647 409.223 266.621 409.117 266.616C409.012 266.61 408.906 266.625 408.806 266.661C408.706 266.696 408.614 266.75 408.536 266.82C408.457 266.891 408.393 266.976 408.347 267.071C408.302 267.165 408.276 267.268 408.27 267.373C408.265 267.478 408.28 267.583 408.315 267.682C408.351 267.781 408.406 267.872 408.477 267.95L409.793 269.398L408.341 270.7C408.262 270.77 408.198 270.854 408.152 270.949C408.106 271.044 408.079 271.147 408.074 271.252C408.068 271.357 408.084 271.462 408.12 271.562C408.156 271.661 408.211 271.752 408.282 271.829C408.353 271.908 408.438 271.972 408.534 272.017C408.63 272.062 408.733 272.088 408.839 272.093C408.945 272.099 409.051 272.084 409.151 272.048C409.251 272.013 409.343 271.959 409.422 271.888L410.877 270.582L412.189 272.026C412.336 272.182 412.536 272.276 412.751 272.29C412.91 272.296 413.067 272.256 413.204 272.174C413.34 272.093 413.449 271.973 413.517 271.83C413.585 271.687 413.609 271.527 413.586 271.371C413.563 271.214 413.494 271.068 413.388 270.951L412.075 269.507Z" fill="#8746EB"/>
<path d="M300.896 331.931L302.285 330.554C302.436 330.404 302.52 330.2 302.52 329.988C302.519 329.775 302.434 329.572 302.282 329.422C302.131 329.272 301.925 329.188 301.711 329.189C301.497 329.189 301.292 329.274 301.141 329.424L299.753 330.801L298.365 329.42C298.212 329.277 298.01 329.199 297.8 329.202C297.591 329.205 297.39 329.289 297.242 329.436C297.094 329.583 297.009 329.782 297.006 329.99C297.003 330.198 297.082 330.399 297.226 330.55L298.614 331.927L297.226 333.303C297.076 333.454 296.992 333.657 296.992 333.868C296.992 334.08 297.076 334.283 297.226 334.433C297.378 334.583 297.583 334.668 297.797 334.668C298.012 334.668 298.217 334.583 298.369 334.433L299.753 333.061L301.141 334.433C301.294 334.576 301.496 334.654 301.706 334.651C301.915 334.648 302.116 334.564 302.264 334.417C302.412 334.27 302.497 334.072 302.5 333.864C302.503 333.656 302.424 333.455 302.28 333.303L300.896 331.931Z" fill="#8746EB"/>
<path d="M285.779 369.79C285.849 369.903 285.896 370.028 285.916 370.159C285.936 370.29 285.93 370.424 285.897 370.552C285.855 370.723 285.768 370.88 285.645 371.008C285.522 371.135 285.367 371.227 285.196 371.276L281.821 372.259C281.651 372.308 281.47 372.312 281.298 372.27C281.126 372.228 280.968 372.142 280.84 372.02C280.711 371.899 280.618 371.746 280.568 371.577C280.518 371.408 280.514 371.229 280.555 371.058L281.399 367.652C281.441 367.48 281.528 367.322 281.652 367.194C281.775 367.067 281.93 366.973 282.101 366.924C282.272 366.875 282.454 366.871 282.627 366.914C282.8 366.956 282.959 367.043 283.087 367.166L285.639 369.589C285.694 369.65 285.741 369.718 285.779 369.79ZM281.34 371.406C281.35 371.421 281.361 371.435 281.374 371.447C281.4 371.474 281.434 371.493 281.47 371.502C281.507 371.51 281.545 371.509 281.581 371.498L284.956 370.518C284.992 370.508 285.025 370.488 285.052 370.461C285.078 370.434 285.096 370.4 285.105 370.364C285.114 370.327 285.114 370.289 285.103 370.253C285.092 370.217 285.072 370.184 285.045 370.158L282.492 367.74C282.465 367.713 282.432 367.695 282.396 367.685C282.359 367.676 282.321 367.676 282.285 367.687C282.249 367.697 282.216 367.716 282.19 367.743C282.164 367.77 282.146 367.804 282.138 367.84L281.294 371.242C281.291 371.272 281.296 371.303 281.307 371.331C281.318 371.359 281.335 371.385 281.357 371.406H281.34Z" fill="#8746EB"/>
<path d="M332.89 269.16C332.96 269.273 333.007 269.399 333.027 269.531C333.047 269.662 333.041 269.796 333.008 269.925C332.968 270.097 332.882 270.254 332.76 270.382C332.637 270.509 332.483 270.602 332.312 270.649L328.937 271.629C328.766 271.678 328.586 271.681 328.414 271.639C328.241 271.597 328.083 271.511 327.955 271.39C327.827 271.268 327.733 271.115 327.683 270.946C327.633 270.777 327.629 270.599 327.671 270.428L328.515 267.025C328.557 266.854 328.644 266.696 328.767 266.568C328.89 266.441 329.044 266.347 329.215 266.297C329.385 266.247 329.566 266.242 329.739 266.284C329.912 266.326 330.07 266.413 330.198 266.536L332.73 268.959C332.79 269.02 332.844 269.087 332.89 269.16ZM328.451 270.792C328.461 270.809 328.474 270.825 328.489 270.838C328.516 270.863 328.549 270.882 328.586 270.891C328.622 270.899 328.66 270.898 328.696 270.888L332.071 269.904C332.108 269.895 332.141 269.876 332.167 269.849C332.194 269.822 332.212 269.789 332.221 269.753C332.231 269.716 332.23 269.678 332.219 269.642C332.208 269.606 332.188 269.574 332.16 269.549L329.607 267.126C329.579 267.1 329.545 267.082 329.508 267.074C329.472 267.065 329.433 267.066 329.396 267.076C329.36 267.086 329.328 267.106 329.302 267.133C329.276 267.161 329.257 267.194 329.249 267.23L328.405 270.633C328.401 270.661 328.403 270.69 328.411 270.717C328.419 270.744 328.433 270.77 328.451 270.792Z" fill="#8746EB"/>
<path d="M441.419 406.691C441.301 406.791 441.161 406.862 441.01 406.899C440.859 406.936 440.702 406.938 440.55 406.906C440.399 406.873 440.257 406.806 440.135 406.71C440.014 406.614 439.916 406.492 439.85 406.352L438.348 403.18C438.273 403.021 438.241 402.845 438.256 402.669C438.271 402.494 438.332 402.326 438.433 402.181C438.535 402.037 438.672 401.921 438.833 401.846C438.993 401.771 439.171 401.739 439.348 401.753L442.871 402.05C443.048 402.065 443.218 402.125 443.364 402.226C443.511 402.326 443.627 402.464 443.703 402.623C443.778 402.783 443.81 402.96 443.794 403.136C443.778 403.311 443.716 403.48 443.613 403.624L441.597 406.499C441.548 406.572 441.488 406.636 441.419 406.691ZM439.124 402.59L439.086 402.632C439.067 402.665 439.057 402.701 439.057 402.739C439.057 402.776 439.067 402.813 439.086 402.846L440.588 406.018C440.604 406.052 440.629 406.081 440.66 406.102C440.691 406.124 440.728 406.136 440.765 406.139C440.803 406.142 440.84 406.136 440.873 406.119C440.907 406.103 440.935 406.078 440.955 406.047L442.976 403.172C442.996 403.14 443.006 403.104 443.006 403.067C443.006 403.03 442.996 402.994 442.976 402.963C442.962 402.929 442.938 402.899 442.907 402.878C442.876 402.856 442.841 402.844 442.803 402.841L439.28 402.544C439.252 402.541 439.224 402.544 439.198 402.552C439.171 402.56 439.146 402.573 439.124 402.59Z" fill="#8746EB"/>
<path d="M441.301 317.774C441.263 317.901 441.198 318.019 441.112 318.12C441.025 318.222 440.919 318.305 440.799 318.364C440.642 318.445 440.465 318.482 440.288 318.474C440.111 318.465 439.939 318.41 439.791 318.314L436.837 316.414C436.688 316.318 436.567 316.185 436.486 316.028C436.406 315.871 436.368 315.696 436.377 315.52C436.386 315.344 436.441 315.174 436.538 315.026C436.634 314.878 436.768 314.757 436.926 314.677L440.069 313.074C440.228 312.994 440.404 312.956 440.582 312.965C440.76 312.974 440.932 313.03 441.081 313.125C441.23 313.221 441.351 313.354 441.432 313.511C441.513 313.669 441.551 313.844 441.542 314.02L441.365 317.519C441.356 317.606 441.335 317.692 441.301 317.774ZM437.167 315.502C437.165 315.521 437.165 315.541 437.167 315.56C437.165 315.598 437.174 315.635 437.192 315.668C437.209 315.701 437.236 315.729 437.268 315.748L440.221 317.648C440.254 317.667 440.291 317.677 440.329 317.677C440.367 317.677 440.404 317.667 440.436 317.648C440.47 317.632 440.498 317.607 440.518 317.576C440.538 317.545 440.549 317.509 440.55 317.473L440.727 313.97C440.729 313.933 440.721 313.896 440.704 313.863C440.687 313.83 440.661 313.802 440.63 313.782C440.597 313.764 440.56 313.754 440.523 313.754C440.485 313.754 440.448 313.764 440.415 313.782L437.272 315.38C437.222 315.405 437.184 315.449 437.167 315.502Z" fill="#8746EB"/>
<path d="M369.112 280.545C370.967 279.228 373.452 279.228 375.307 280.545L430.63 319.829C432.661 321.271 433.231 323.553 432.706 325.543V388.797C432.706 393.721 428.714 397.713 423.789 397.713H320.629C315.705 397.713 311.713 393.721 311.713 388.797V325.544C311.188 323.554 311.758 321.271 313.789 319.829L369.112 280.545Z" fill="#4D64DE"/>
<mask id="mask1_14273_1888" style="mask-type:alpha" maskUnits="userSpaceOnUse" x="311" y="279" width="122" height="119">
<path d="M370.329 280.388C371.451 279.577 372.967 279.577 374.09 280.388L431.261 321.706C431.811 322.104 432.179 322.604 432.388 323.144C432.59 323.505 432.706 323.92 432.706 324.363V388.797C432.706 393.721 428.714 397.712 423.79 397.713H320.629C315.705 397.712 311.713 393.721 311.713 388.797V324.363C311.713 323.922 311.828 323.508 312.029 323.148C312.237 322.607 312.606 322.104 313.158 321.706L370.329 280.388Z" fill="#6600EB"/>
</mask>
<g mask="url(#mask1_14273_1888)">
<rect x="328.688" y="330.354" width="88.1264" height="39.0068" fill="white"/>
<path d="M311.713 398.217V329.955L433.428 398.217H311.713Z" fill="url(#paint1_linear_14273_1888)"/>
<path d="M433.428 398.217V329.955L311.713 398.217H433.428Z" fill="url(#paint2_linear_14273_1888)"/>
<path d="M367.277 351.407C370.203 348.928 374.493 348.928 377.42 351.407L427.331 393.684C432.907 398.407 429.567 407.518 422.26 407.518H322.436C315.129 407.518 311.789 398.407 317.365 393.684L367.277 351.407Z" fill="#AC6EFC"/>
</g>
<path d="M328.688 298.571H399.695C409.15 298.571 416.814 306.235 416.814 315.69V331.437H328.688V298.571Z" fill="white"/>
<path d="M328.688 298.571H399.695C409.15 298.571 416.814 306.235 416.814 315.69V331.437H328.688V298.571Z" fill="white"/>
<path d="M328.065 298.533C328.439 298.533 328.809 298.546 329.177 298.571H398.395C398.652 298.571 398.907 298.578 399.161 298.59C390.642 298.988 383.827 305.903 383.587 314.463H327.243V314.425H311.714C311.961 305.606 319.187 298.533 328.065 298.533Z" fill="url(#paint3_linear_14273_1888)"/>
<path d="M394.782 339.707H349.636V337.54H394.782V339.707ZM394.782 332.483H349.636V330.316H394.782V332.483ZM394.782 325.26H349.636V323.093H394.782V325.26Z" fill="url(#paint4_linear_14273_1888)"/>
<path d="M408.026 333.556C419.901 333.556 429.526 323.931 429.526 312.056C429.526 300.182 419.901 290.556 408.026 290.556C396.152 290.556 386.526 300.182 386.526 312.056C386.526 323.931 396.152 333.556 408.026 333.556Z" fill="url(#paint5_linear_14273_1888)"/>
<path fill-rule="evenodd" clip-rule="evenodd" d="M403.82 304.805C403.411 304.425 402.871 304.218 402.313 304.227C401.755 304.237 401.223 304.463 400.828 304.858C400.433 305.253 400.207 305.785 400.197 306.343C400.188 306.901 400.395 307.441 400.775 307.85L405.715 312.79L400.775 317.73C400.395 318.139 400.188 318.679 400.197 319.237C400.207 319.795 400.433 320.327 400.828 320.722C401.223 321.117 401.755 321.343 402.313 321.353C402.871 321.362 403.411 321.155 403.82 320.775L408.76 315.835L413.7 320.775C414.109 321.155 414.649 321.362 415.207 321.353C415.765 321.343 416.297 321.117 416.692 320.722C417.087 320.327 417.313 319.795 417.323 319.237C417.332 318.679 417.125 318.139 416.745 317.73L411.805 312.79L416.745 307.85C417.125 307.441 417.332 306.901 417.323 306.343C417.313 305.785 417.087 305.253 416.692 304.858C416.297 304.463 415.765 304.237 415.207 304.227C414.649 304.218 414.109 304.425 413.7 304.805L408.76 309.745L403.82 304.805Z" fill="white"/>
</g>
<defs>
<filter id="filter0_f_14273_1888" x="4.57764e-05" y="-7.62939e-05" width="691.71" height="691.113" filterUnits="userSpaceOnUse" color-interpolation-filters="sRGB">
<feFlood flood-opacity="0" result="BackgroundImageFix"/>
<feBlend mode="normal" in="SourceGraphic" in2="BackgroundImageFix" result="shape"/>
<feGaussianBlur stdDeviation="108.278" result="effect1_foregroundBlur_14273_1888"/>
</filter>
<radialGradient id="paint0_radial_14273_1888" cx="0" cy="0" r="1" gradientUnits="userSpaceOnUse" gradientTransform="translate(302.341 -7.20836e-05) rotate(90) scale(604.681 315.605)">
<stop/>
<stop offset="0.953125" stop-opacity="0"/>
</radialGradient>
<linearGradient id="paint1_linear_14273_1888" x1="294.973" y1="346.647" x2="350.973" y2="364.147" gradientUnits="userSpaceOnUse">
<stop stop-color="#1179FC"/>
<stop offset="1" stop-color="#9747FF"/>
</linearGradient>
<linearGradient id="paint2_linear_14273_1888" x1="450.168" y1="346.647" x2="394.168" y2="364.147" gradientUnits="userSpaceOnUse">
<stop stop-color="#1179FC"/>
<stop offset="1" stop-color="#9747FF"/>
</linearGradient>
<linearGradient id="paint3_linear_14273_1888" x1="356.524" y1="298.533" x2="356.524" y2="314.425" gradientUnits="userSpaceOnUse">
<stop stop-color="#B4C0FF"/>
<stop offset="1" stop-color="#DEE3FF"/>
</linearGradient>
<linearGradient id="paint4_linear_14273_1888" x1="349.636" y1="339.707" x2="394.782" y2="339.707" gradientUnits="userSpaceOnUse">
<stop stop-color="#B5C0FF"/>
<stop offset="1" stop-color="#B5C0FF" stop-opacity="0"/>
</linearGradient>
<linearGradient id="paint5_linear_14273_1888" x1="408.026" y1="290.556" x2="408.026" y2="333.556" gradientUnits="userSpaceOnUse">
<stop stop-color="#E34C3D"/>
<stop offset="1" stop-color="#DB1E0A"/>
</linearGradient>
<clipPath id="clip0_14273_1888">
<rect width="367.084" height="195.014" fill="white" transform="translate(180.526 266.556)"/>
</clipPath>
<clipPath id="clip1_14273_1888">
<rect width="315.027" height="167.971" fill="white" transform="translate(205.609 266.556)"/>
</clipPath>
<clipPath id="clip2_14273_1888">
<rect width="315.027" height="167.971" fill="white" transform="translate(205.609 266.556)"/>
</clipPath>
<clipPath id="clip3_14273_1888">
<rect width="315.027" height="160.486" fill="white" transform="translate(205.609 266.556)"/>
</clipPath>
<clipPath id="clip4_14273_1888">
<rect width="168.821" height="162" fill="white" transform="translate(280.526 264.556)"/>
</clipPath>
</defs>
</svg>
