<svg width="20" height="20" viewBox="0 0 20 20" fill="none" xmlns="http://www.w3.org/2000/svg">
<g clip-path="url(#clip0_10436_2188)">
<circle cx="9.99999" cy="10" r="8.33333" fill="white"/>
<path d="M10.4942 19.3817L10.485 19.3833L10.4258 19.4125L10.4092 19.4158L10.3975 19.4125L10.3383 19.3833C10.3294 19.3806 10.3228 19.3819 10.3183 19.3875L10.315 19.3958L10.3008 19.7525L10.305 19.7692L10.3133 19.78L10.4 19.8417L10.4125 19.845L10.4225 19.8417L10.5092 19.78L10.5192 19.7667L10.5225 19.7525L10.5083 19.3967C10.5061 19.3878 10.5014 19.3828 10.4942 19.3817ZM10.715 19.2875L10.7042 19.2892L10.55 19.3667L10.5417 19.375L10.5392 19.3842L10.5542 19.7425L10.5583 19.7525L10.565 19.7583L10.7325 19.8358C10.743 19.8386 10.7511 19.8364 10.7567 19.8292L10.76 19.8175L10.7317 19.3058C10.7289 19.2958 10.7233 19.2897 10.715 19.2875ZM10.1192 19.2892C10.1155 19.2869 10.1111 19.2862 10.1069 19.2871C10.1027 19.2881 10.099 19.2906 10.0967 19.2942L10.0917 19.3058L10.0633 19.8175C10.0639 19.8275 10.0686 19.8342 10.0775 19.8375L10.09 19.8358L10.2575 19.7583L10.2658 19.7517L10.2692 19.7425L10.2833 19.3842L10.2808 19.3742L10.2725 19.3658L10.1192 19.2892Z" fill="url(#paint0_linear_10436_2188)"/>
<path d="M10 0C15.523 0 20 4.477 20 10C20 15.523 15.523 20 10 20C4.477 20 0 15.523 0 10C0 4.477 4.477 0 10 0ZM13.535 6.381L8.585 11.331L6.465 9.21C6.37216 9.11709 6.26192 9.04338 6.14059 8.99307C6.01926 8.94276 5.8892 8.91684 5.75785 8.9168C5.49258 8.9167 5.23814 9.02199 5.0505 9.2095C4.86286 9.39701 4.75739 9.65138 4.7573 9.91665C4.7572 10.1819 4.86249 10.4364 5.05 10.624L7.808 13.382C7.91015 13.4842 8.03144 13.5653 8.16493 13.6206C8.29842 13.6759 8.4415 13.7044 8.586 13.7044C8.7305 13.7044 8.87358 13.6759 9.00707 13.6206C9.14056 13.5653 9.26185 13.4842 9.364 13.382L14.95 7.796C15.1376 7.60836 15.2431 7.35386 15.2431 7.0885C15.2431 6.82314 15.1376 6.56864 14.95 6.381C14.7624 6.19336 14.5079 6.08794 14.2425 6.08794C13.9771 6.08794 13.7226 6.19336 13.535 6.381Z" fill="url(#paint1_linear_10436_2188)"/>
</g>
<defs>
<linearGradient id="paint0_linear_10436_2188" x1="10.76" y1="19.5659" x2="10.0633" y2="19.5659" gradientUnits="userSpaceOnUse">
<stop stop-color="#8746EB"/>
<stop offset="1" stop-color="#DC49A6"/>
</linearGradient>
<linearGradient id="paint1_linear_10436_2188" x1="20" y1="10" x2="0" y2="10" gradientUnits="userSpaceOnUse">
<stop stop-color="#8746EB"/>
<stop offset="1" stop-color="#DC49A6"/>
</linearGradient>
<clipPath id="clip0_10436_2188">
<rect width="20" height="20" fill="white"/>
</clipPath>
</defs>
</svg>
