<svg width="24" height="24" viewBox="0 0 24 24" fill="none" xmlns="http://www.w3.org/2000/svg">
<rect width="24" height="24" rx="12" fill="white" fill-opacity="0.2"/>
<path d="M11.8437 2.70557C10.0055 2.70557 8.2085 3.25067 6.68004 4.27196C5.15158 5.29324 3.96029 6.74483 3.25682 8.44317C2.55334 10.1415 2.36928 12.0103 2.72791 13.8132C3.08654 15.6162 3.97175 17.2723 5.27159 18.5721C6.57144 19.872 8.22755 20.7572 10.0305 21.1158C11.8334 21.4744 13.7022 21.2904 15.4006 20.5869C17.0989 19.8834 18.5505 18.6922 19.5718 17.1637C20.5931 15.6352 21.1382 13.8383 21.1382 12C21.1382 10.7794 20.8978 9.57082 20.4307 8.44317C19.9636 7.31552 19.279 6.29091 18.4159 5.42784C17.5528 4.56477 16.5282 3.88015 15.4006 3.41306C14.2729 2.94597 13.0643 2.70557 11.8437 2.70557ZM9.98486 16.1825V7.8175L15.5615 12L9.98486 16.1825Z" fill="white"/>
</svg>
