<svg width="16" height="16" viewBox="0 0 16 16" fill="none" xmlns="http://www.w3.org/2000/svg">
<path d="M8.54812 2.95384C8.48696 2.86501 8.40512 2.79238 8.30966 2.74221C8.21419 2.69203 8.10796 2.66582 8.00012 2.66582C7.89227 2.66582 7.78604 2.69203 7.69058 2.74221C7.59511 2.79238 7.51328 2.86501 7.45212 2.95384L1.45212 11.6205C1.38267 11.7205 1.34194 11.8375 1.33436 11.959C1.32678 12.0805 1.35264 12.2018 1.40913 12.3096C1.46561 12.4174 1.55057 12.5077 1.65476 12.5706C1.75895 12.6335 1.8784 12.6667 2.00012 12.6665L14.0001 12.6665C14.1216 12.666 14.2406 12.6324 14.3443 12.5693C14.4481 12.5063 14.5327 12.4161 14.5891 12.3085C14.6454 12.2009 14.6714 12.08 14.6642 11.9588C14.657 11.8376 14.6168 11.7206 14.5481 11.6205L8.54812 2.95384Z" fill="white"/>
</svg>
